<?xml version="1.0" encoding="utf-8"?>
<!-- Generator: Adobe Illustrator 17.0.0, SVG Export Plug-In . SVG Version: 6.00 Build 0)  -->
<!DOCTYPE svg PUBLIC "-//W3C//DTD SVG 1.1//EN" "http://www.w3.org/Graphics/SVG/1.1/DTD/svg11.dtd">
<svg version="1.1" id="Layer_1" xmlns="http://www.w3.org/2000/svg" xmlns:xlink="http://www.w3.org/1999/xlink" x="0px" y="0px"
	 width="290.906px" height="53.919px" viewBox="0 0 290.906 53.919" enable-background="new 0 0 290.906 53.919"
	 xml:space="preserve">
<g>
	<path fill="#231F20" d="M211.666,39.123"/>
	<g>
		<path fill="#231F20" d="M20.27,14.225c-0.347-2.18-2.18-5.402-6.889-5.402c-3.569,0-6.046,2.379-6.046,5.055
			c0,2.23,1.388,3.915,4.113,4.51l5.055,1.04c6.195,1.239,9.516,5.155,9.516,10.11c0,5.452-4.411,10.656-12.44,10.656
			c-8.921,0-13.034-5.749-13.58-10.804l5.551-1.586c0.347,3.667,2.974,7.037,8.029,7.037c4.213,0,6.393-2.131,6.393-4.857
			c0-2.28-1.685-4.113-4.708-4.758l-4.956-1.041c-5.352-1.09-8.921-4.609-8.921-9.863C1.388,8.427,6.79,3.57,13.332,3.57
			c8.277,0,11.499,5.055,12.291,8.971L20.27,14.225z"/>
		<path fill="#231F20" d="M36.974,15.316h5.006v5.105h-5.006v11.201c0,2.131,0.942,3.023,3.073,3.023
			c0.793,0,1.735-0.149,1.982-0.198v4.758c-0.347,0.149-1.437,0.545-3.519,0.545c-4.461,0-7.236-2.676-7.236-7.187V20.421h-4.46
			v-5.105h1.239c2.577,0,3.717-1.636,3.717-3.767V7.931h5.204V15.316z"/>
		<path fill="#231F20" d="M54.816,40.146c-5.749,0-9.119-4.263-9.119-9.615V15.316h5.749V29.49c0,2.974,1.388,5.501,4.857,5.501
			c3.321,0,5.055-2.23,5.055-5.402V15.316h5.749v19.725c0,1.982,0.149,3.519,0.248,4.411h-5.501
			c-0.099-0.545-0.198-1.685-0.198-2.676C60.466,38.956,57.641,40.146,54.816,40.146z"/>
		<path fill="#231F20" d="M94.715,35.041c0,2.18,0.199,4.014,0.248,4.411h-5.502c-0.099-0.545-0.248-2.131-0.248-3.122
			c-1.14,2.032-3.667,3.717-7.087,3.717c-6.939,0-11.597-5.452-11.597-12.737c0-6.939,4.708-12.638,11.498-12.638
			c4.213,0,6.344,1.933,7.087,3.469V3.57h5.6V35.041z M82.771,34.991c3.767,0,6.394-3.122,6.394-7.731
			c0-4.609-2.578-7.483-6.344-7.483c-3.767,0-6.542,2.924-6.542,7.533C76.278,31.919,78.855,34.991,82.771,34.991z"/>
		<path fill="#231F20" d="M103.092,3.074c2.082,0,3.767,1.685,3.767,3.767s-1.685,3.717-3.767,3.717
			c-2.032,0-3.717-1.636-3.717-3.717S101.06,3.074,103.092,3.074z M100.267,39.452V15.316h5.699v24.136H100.267z"/>
		<path fill="#231F20" d="M134.564,27.359c0,7.434-5.303,12.836-12.539,12.836c-7.187,0-12.489-5.402-12.489-12.836
			c0-7.385,5.303-12.787,12.489-12.787C129.261,14.572,134.564,19.974,134.564,27.359z M128.765,27.359
			c0-5.006-3.172-7.583-6.74-7.583c-3.519,0-6.74,2.577-6.74,7.583s3.222,7.682,6.74,7.682
			C125.593,35.041,128.765,32.414,128.765,27.359z"/>
	</g>
	<g>
		<g>
			<path fill="#231F20" d="M159.584,3.599c-9.164,0-17.736,6.75-17.736,18.18c0,11.479,8.572,18.228,17.736,18.228
				c9.164,0,17.785-6.749,17.785-18.228C177.369,10.349,168.748,3.599,159.584,3.599z M159.584,34.391
				c-5.863,0-11.676-4.188-11.676-12.612c0-8.425,5.813-12.612,11.676-12.612c5.912,0,11.725,4.188,11.725,12.612
				C171.31,30.203,165.496,34.391,159.584,34.391z"/>
			<path fill="#231F20" d="M203.074,3.599h-5.567v14.484c-0.739-1.527-2.857-3.449-7.045-3.449c-6.75,0-11.43,5.666-11.43,12.563
				c0,7.242,4.631,12.662,11.528,12.662c3.4,0,5.912-1.675,7.045-3.695c0,0.985,0.148,2.562,0.246,3.104h5.469
				c-0.049-0.394-0.246-2.217-0.246-4.385V3.599z M191.2,34.834c-3.892,0-6.454-3.055-6.454-7.636c0-4.582,2.759-7.489,6.503-7.489
				c3.744,0,6.306,2.858,6.306,7.439C197.556,31.73,194.945,34.834,191.2,34.834z"/>
			<path fill="#231F20" d="M228.528,3.599h-5.567v14.484c-0.739-1.527-2.858-3.449-7.045-3.449c-6.75,0-11.43,5.666-11.43,12.563
				c0,7.242,4.631,12.662,11.528,12.662c3.4,0,5.912-1.675,7.046-3.695c0,0.985,0.148,2.562,0.246,3.104h5.468
				c-0.049-0.394-0.246-2.217-0.246-4.385V3.599z M216.655,34.834c-3.892,0-6.454-3.055-6.454-7.636
				c0-4.582,2.759-7.489,6.503-7.489s6.306,2.858,6.306,7.439C223.011,31.73,220.399,34.834,216.655,34.834z"/>
			<rect x="232.677" y="15.276" fill="#231F20" width="5.666" height="23.993"/>
			<path fill="#231F20" d="M251.03,31.484V20.35h4.975v-5.074h-4.975V7.935h-5.173v3.597c0,2.118-1.133,3.744-3.695,3.744h-1.231
				v5.074h4.434v12.07c0,4.483,2.759,7.144,7.193,7.144c2.069,0,3.153-0.394,3.498-0.542v-4.73
				c-0.246,0.049-1.182,0.197-1.971,0.197C251.966,34.489,251.03,33.603,251.03,31.484z"/>
			<path fill="#231F20" d="M278.885,15.054h-5.555v13.791c0,3.065-1.676,5.219-4.884,5.219c-3.352,0-4.692-2.442-4.692-5.315V15.054
				h-5.555v14.7c0,5.171,3.256,9.289,8.811,9.289c2.729,0,5.419-1.03,6.568-3.137c0,0.958-0.009,7.16-0.009,7.16h0.005
				c0,3.056-2.24,5.543-4.993,5.543s-4.993-2.487-4.993-5.543h-5.311c0,5.984,4.622,10.853,10.304,10.853
				s10.304-4.869,10.304-10.853h-0.001l0.001-8.955V15.054z"/>
		</g>
		<path fill="#231F20" d="M235.485,3.92c2.217,0,4.04,1.823,4.04,4.04c0,2.217-1.823,3.99-4.04,3.99
			c-2.217,0-3.991-1.774-3.991-3.99C231.494,5.743,233.268,3.92,235.485,3.92z"/>
		<path fill="#231F20" d="M286.866,31.421c2.217,0,4.04,1.823,4.04,4.04c0,2.217-1.823,3.99-4.04,3.99s-3.991-1.774-3.991-3.99
			C282.875,33.244,284.649,31.421,286.866,31.421z"/>
	</g>
</g>
</svg>
